#N canvas 503 142 773 587 12;
#X msg 226 720 send foo \$1;
#X floatatom 226 693 0 0 0 0 - - -;
#X obj 209 751 netsend -u;
#X floatatom 209 782 5 0 0 0 - - -;
#X obj 276 781 print backward;
#X obj 960 730 udpreceive 3001;
#X msg 960 703 port 3001;
#X obj 39 690 netreceive -u -b 8888;
#X msg 39 664 listen 8888;
#X obj 753 764 udpsend;
#X obj 960 756 fudiparse;
#X obj 39 744 print;
#X obj 39 715 fudiparse;
#X msg 753 682 connect localhost 3002;
#X obj 764 735 fudiformat;
#X obj 94 63 route webEvent1;
#X obj 94 88 bng 15 250 50 0 empty empty empty 17 7 0 10 -262144 -1
-1;
#X obj 12 286 bng 15 250 50 0 empty empty empty 17 7 0 10 -262144 -1
-1;
#X floatatom 36 386 5 0 127 0 - - -;
#X obj 960 638 loadbang;
#X obj 960 671 t b b;
#X msg 209 662 connect localhost 3004;
#X obj 326 88 bng 15 250 50 0 empty empty empty 17 7 0 10 -262144 -1
-1;
#X obj 326 63 route webEvent3;
#X obj 410 422 list prepend chat;
#X obj 227 459 route list;
#X msg 410 391 Hello From PD User;
#X obj 227 419 list prepend addUsername;
#X msg 227 391 Nick-PD;
#X obj 427 657 list prepend observeAllEvents;
#X msg 389 631 true;
#X obj 211 88 bng 15 250 50 0 empty empty empty 17 7 0 10 -262144 -1
-1;
#X obj 444 88 bng 15 250 50 0 empty empty empty 17 7 0 10 -262144 -1
-1;
#X obj 211 63 route webEvent2;
#X obj 389 688 list prepend observeAllControl;
#X obj 10 151 route webSlider1;
#X floatatom 10 175 5 0 127 0 - - -;
#X floatatom 132 175 5 0 0 0 - - -;
#X obj 132 151 route webSlider2;
#X floatatom 254 175 5 0 0 0 - - -;
#X obj 254 151 route webSlider3;
#X floatatom 377 175 5 0 0 0 - - -;
#X obj 13 501 send toClient;
#X obj 764 708 receive toClient;
#X obj 10 17 r fromClient;
#X obj 960 781 s fromClient;
#X obj 10 62 print Msg:;
#X obj 56 180 vsl 15 50 0 100 0 0 empty empty empty 0 -9 0 10 -262144
-1 -1 0 1;
#X obj 179 177 vsl 15 50 0 100 0 0 empty empty empty 0 -9 0 10 -262144
-1 -1 0 1;
#X obj 300 177 vsl 15 50 0 100 0 0 empty empty empty 0 -9 0 10 -262144
-1 -1 0 1;
#X obj 421 177 vsl 15 50 0 100 0 0 empty empty empty 0 -9 0 10 -262144
-1 -1 2058 1;
#X obj 10 118 r fromClient;
#X obj 20 332 bng 15 250 50 0 empty empty empty 17 7 0 10 -262144 -1
-1;
#X msg 20 353 push all pdEvent2;
#X obj 389 739 send toClient;
#X floatatom 46 436 5 0 127 0 - - -;
#X obj 389 715 route list;
#X text 328 519 updated for Collab-Hub v0.3.0 - NH;
#X msg 290 391 pdClient;
#X obj 444 63 route espEvent;
#X msg 12 307 push all pdEvent;
#X obj 554 88 bng 15 250 50 0 empty empty empty 17 7 0 10 -262144 -1
-1;
#X obj 554 63 route leBang;
#X obj 647 88 bng 15 250 50 0 empty empty empty 17 7 0 10 -262144 -1
-1;
#X obj 647 63 route bang1;
#X msg 46 460 push all pdSlider2 \$1;
#X msg 36 411 push all pdSlider \$1 \$1;
#X obj 377 151 route value1;
#X connect 0 0 2 0;
#X connect 1 0 0 0;
#X connect 2 0 3 0;
#X connect 2 1 4 0;
#X connect 5 0 10 0;
#X connect 6 0 5 0;
#X connect 7 0 12 0;
#X connect 8 0 7 0;
#X connect 10 0 45 0;
#X connect 12 0 11 0;
#X connect 13 0 9 0;
#X connect 14 0 9 0;
#X connect 15 0 16 0;
#X connect 17 0 60 0;
#X connect 18 0 66 0;
#X connect 19 0 20 0;
#X connect 19 0 13 0;
#X connect 20 0 6 0;
#X connect 21 0 2 0;
#X connect 23 0 22 0;
#X connect 24 0 25 0;
#X connect 25 0 42 0;
#X connect 26 0 24 0;
#X connect 27 0 25 0;
#X connect 28 0 27 0;
#X connect 29 0 56 0;
#X connect 30 0 29 0;
#X connect 30 0 34 0;
#X connect 33 0 31 0;
#X connect 34 0 56 0;
#X connect 35 0 36 0;
#X connect 35 0 47 0;
#X connect 38 0 37 0;
#X connect 38 0 48 0;
#X connect 40 0 39 0;
#X connect 40 0 49 0;
#X connect 43 0 14 0;
#X connect 44 0 23 0;
#X connect 44 0 15 0;
#X connect 44 0 33 0;
#X connect 44 0 46 0;
#X connect 44 0 59 0;
#X connect 44 0 62 0;
#X connect 44 0 64 0;
#X connect 51 0 35 0;
#X connect 51 0 38 0;
#X connect 51 0 40 0;
#X connect 51 0 67 0;
#X connect 52 0 53 0;
#X connect 53 0 42 0;
#X connect 55 0 65 0;
#X connect 56 0 54 0;
#X connect 58 0 27 0;
#X connect 59 0 32 0;
#X connect 60 0 42 0;
#X connect 62 0 61 0;
#X connect 64 0 63 0;
#X connect 65 0 42 0;
#X connect 66 0 42 0;
#X connect 67 0 41 0;
#X connect 67 0 50 0;
