#N canvas 352 40 882 867 12;
#X obj 13 751 fudiparse;
#X obj 179 750 fudiformat;
#X obj 94 63 route webEvent1;
#X obj 94 88 bng 15 250 50 0 empty empty empty 17 7 0 10 -262144 -1
-1;
#X obj 12 286 bng 15 250 50 0 empty empty empty 17 7 0 10 -262144 -1
-1;
#X floatatom 173 307 5 0 127 0 - - -;
#X obj 13 633 loadbang;
#X obj 13 666 t b b;
#X obj 326 88 bng 15 250 50 0 empty empty empty 17 7 0 10 -262144 -1
-1;
#X obj 326 63 route webEvent3;
#X obj 574 342 list prepend chat;
#X obj 391 379 route list;
#X obj 391 339 list prepend addUsername;
#X msg 391 311 Nick-PD;
#X obj 429 666 list prepend observeAllEvents;
#X msg 391 633 true;
#X obj 211 88 bng 15 250 50 0 empty empty empty 17 7 0 10 -262144 -1
-1;
#X obj 444 88 bng 15 250 50 0 empty empty empty 17 7 0 10 -262144 -1
-1;
#X obj 211 63 route webEvent2;
#X obj 391 698 list prepend observeAllControl;
#X obj 9 151 route webSlider1;
#X floatatom 10 175 5 0 127 0 - - -;
#X floatatom 132 175 5 0 0 0 - - -;
#X obj 132 151 route webSlider2;
#X floatatom 254 175 5 0 0 0 - - -;
#X obj 254 151 route webSlider3;
#X floatatom 377 175 5 0 0 0 - - -;
#X obj 13 501 send toClient;
#X obj 179 724 receive toClient;
#X obj 10 17 r fromClient;
#X obj 13 776 s fromClient;
#X obj 10 62 print Msg:;
#X obj 56 180 vsl 15 50 0 100 0 0 empty empty empty 0 -9 0 10 -262144
-1 -1 0 1;
#X obj 179 177 vsl 15 50 0 100 0 0 empty empty empty 0 -9 0 10 -262144
-1 -1 0 1;
#X obj 300 177 vsl 15 50 0 100 0 0 empty empty empty 0 -9 0 10 -262144
-1 -1 0 1;
#X obj 421 177 vsl 15 50 0 100 0 0 empty empty empty 0 -9 0 10 -262144
-1 -1 0 1;
#X obj 10 118 r fromClient;
#X obj 20 332 bng 15 250 50 0 empty empty empty 17 7 0 10 -262144 -1
-1;
#X msg 20 353 push all pdEvent2;
#X obj 391 751 send toClient;
#X floatatom 183 357 5 0 127 0 - - -;
#X obj 391 725 route list;
#X text 624 832 updated for Collab-Hub v0.3.0 - NH;
#X obj 444 63 route espEvent;
#X obj 554 88 bng 15 250 50 0 empty empty empty 17 7 0 10 -262144 -1
-1;
#X obj 554 63 route leBang;
#X obj 647 88 bng 15 250 50 0 empty empty empty 17 7 0 10 -262144 -1
-1;
#X obj 647 63 route bang1;
#X obj 377 151 route value1;
#X msg 574 311 Hello From PD User~!;
#X obj 231 360 hsl 128 15 0 127 0 0 empty empty empty -2 -8 0 10 -262144
-1 -1 0 1;
#X obj 220 307 hsl 128 15 0 127 0 0 empty empty empty -2 -8 0 10 -262144
-1 -1 0 1;
#X text 386 609 Observe All Published Events and Pulished All Controls
;
#X text 112 14 Receive Events;
#X text 110 117 Receive Control Data;
#X text 42 281 Send Events;
#X text 169 279 Send Control Data;
#X msg 454 311 pdClient;
#X text 386 281 Set Username;
#X text 571 283 Send a Chat Message;
#X msg 733 311 Do a Barrel Roll!;
#X text 12 590 Connect to the CH-Client;
#X obj 83 633 bng 15 250 50 0 empty empty empty 17 7 0 10 -262144 -1
-1;
#X text 11 609 Change the port numbers in Main.js lines 17 & 18;
#X floatatom 478 174 5 0 0 0 - - -;
#X obj 522 176 vsl 15 50 0 100 0 0 empty empty empty 0 -9 0 10 -262144
-1 -1 0 1;
#X obj 478 150 route value2;
#X obj 736 88 bng 15 250 50 0 empty empty empty 17 7 0 10 -262144 -1
-1;
#X obj 736 63 route bang2;
#X msg 183 381 push all pdSlider2 \$1;
#X msg 173 332 push all pdSlider1 \$1;
#X msg 12 307 push all webEvent1;
#X msg 13 698 listen 3001;
#X msg 168 697 connect localhost 3002;
#X obj 168 778 netsend -u -b;
#X obj 13 725 netreceive -u -b 3001;
#X connect 0 0 30 0;
#X connect 1 0 74 0;
#X connect 2 0 3 0;
#X connect 4 0 71 0;
#X connect 5 0 70 0;
#X connect 6 0 7 0;
#X connect 7 0 72 0;
#X connect 7 1 73 0;
#X connect 9 0 8 0;
#X connect 10 0 11 0;
#X connect 11 0 27 0;
#X connect 12 0 11 0;
#X connect 13 0 12 0;
#X connect 14 0 41 0;
#X connect 15 0 14 0;
#X connect 15 0 19 0;
#X connect 18 0 16 0;
#X connect 19 0 41 0;
#X connect 20 0 21 0;
#X connect 20 0 32 0;
#X connect 23 0 22 0;
#X connect 23 0 33 0;
#X connect 25 0 24 0;
#X connect 25 0 34 0;
#X connect 28 0 1 0;
#X connect 29 0 9 0;
#X connect 29 0 2 0;
#X connect 29 0 18 0;
#X connect 29 0 31 0;
#X connect 29 0 43 0;
#X connect 29 0 45 0;
#X connect 29 0 47 0;
#X connect 29 0 68 0;
#X connect 36 0 23 0;
#X connect 36 0 25 0;
#X connect 36 0 48 0;
#X connect 36 0 20 0;
#X connect 36 0 66 0;
#X connect 37 0 38 0;
#X connect 38 0 27 0;
#X connect 40 0 69 0;
#X connect 41 0 39 0;
#X connect 43 0 17 0;
#X connect 45 0 44 0;
#X connect 47 0 46 0;
#X connect 48 0 26 0;
#X connect 48 0 35 0;
#X connect 49 0 10 0;
#X connect 50 0 40 0;
#X connect 51 0 5 0;
#X connect 57 0 12 0;
#X connect 60 0 10 0;
#X connect 62 0 7 0;
#X connect 66 0 64 0;
#X connect 66 0 65 0;
#X connect 68 0 67 0;
#X connect 69 0 27 0;
#X connect 70 0 27 0;
#X connect 71 0 27 0;
#X connect 72 0 75 0;
#X connect 73 0 74 0;
#X connect 75 0 0 0;
