#N canvas 73 22 1466 1030 12;
#X obj 17 788 fudiparse;
#X obj 183 802 fudiformat;
#X obj 20 81 route webEvent1;
#X obj 20 106 bng 15 250 50 0 empty empty empty 17 7 0 10 #fcfcfc #000000 #000000;
#X obj 24 353 bng 15 250 50 0 empty empty empty 17 7 0 10 #fcfcfc #000000 #000000;
#X floatatom 182 353 5 0 127 0 - - - 0;
#X obj 17 684 loadbang;
#X obj 17 710 t b b;
#X obj 252 106 bng 15 250 50 0 empty empty empty 17 7 0 10 #fcfcfc #000000 #000000;
#X obj 252 81 route webEvent3;
#X obj 583 374 list prepend chat;
#X obj 400 441 route list;
#X obj 400 374 list prepend addUsername;
#X msg 400 353 Nick-PD;
#X obj 565 747 list prepend observeAllEvents;
#X msg 527 714 true;
#X obj 137 106 bng 15 250 50 0 empty empty empty 17 7 0 10 #fcfcfc #000000 #000000;
#X obj 370 106 bng 15 250 50 0 empty empty empty 17 7 0 10 #fcfcfc #000000 #000000;
#X obj 137 81 route webEvent2;
#X obj 527 779 list prepend observeAllControl;
#X obj 20 178 route webSlider1;
#X floatatom 20 202 5 0 127 0 - - - 0;
#X floatatom 142 202 5 0 0 0 - - - 0;
#X obj 142 178 route webSlider2;
#X floatatom 264 202 5 0 0 0 - - - 0;
#X obj 264 178 route webSlider3;
#X floatatom 387 202 5 0 0 0 - - - 0;
#X obj 26 576 send toClient;
#X obj 183 776 receive toClient;
#X obj 20 44 r fromClient;
#X obj 17 814 s fromClient;
#X obj 68 204 vsl 15 50 0 100 0 0 empty empty empty 0 -9 0 10 #fcfcfc #000000 #000000 0 1;
#X obj 189 204 vsl 15 50 0 100 0 0 empty empty empty 0 -9 0 10 #fcfcfc #000000 #000000 0 1;
#X obj 310 204 vsl 15 50 0 100 0 0 empty empty empty 0 -9 0 10 #fcfcfc #000000 #000000 0 1;
#X obj 431 204 vsl 15 50 0 100 0 0 empty empty empty 0 -9 0 10 #fcfcfc #000000 #000000 0 1;
#X obj 20 145 r fromClient;
#X obj 20 420 bng 15 250 50 0 empty empty empty 17 7 0 10 #fcfcfc #000000 #000000;
#X msg 20 441 push all pdEvent2;
#X obj 527 832 send toClient;
#X floatatom 192 420 5 0 127 0 - - - 0;
#X obj 527 806 route list;
#X obj 370 81 route espEvent;
#X obj 480 106 bng 15 250 50 0 empty empty empty 17 7 0 10 #fcfcfc #000000 #000000;
#X obj 480 81 route leBang;
#X obj 573 106 bng 15 250 50 0 empty empty empty 17 7 0 10 #fcfcfc #000000 #000000;
#X obj 573 81 route bang1;
#X obj 387 178 route value1;
#X msg 583 353 Hello From PD User~!;
#X obj 240 420 hsl 128 15 0 127 0 0 empty empty empty -2 -8 0 10 #fcfcfc #000000 #000000 0 1;
#X obj 229 353 hsl 128 15 0 127 0 0 empty empty empty -2 -8 0 10 #fcfcfc #000000 #000000 0 1;
#X text 522 690 Observe All Published Events and Pulished All Controls;
#X text 122 41 Receive Events;
#X text 120 144 Receive Control Data;
#X text 20 327 Send Events;
#X text 179 328 Send Control Data;
#X msg 463 353 pdClient;
#X text 395 325 Set Username;
#X text 580 327 Send a Chat Message;
#X msg 742 353 Do a Barrel Roll!;
#X text 15 626 Connect to the CH-Client;
#X obj 87 684 bng 15 250 50 0 empty empty empty 17 7 0 10 #fcfcfc #000000 #000000;
#X floatatom 488 201 5 0 0 0 - - - 0;
#X obj 532 203 vsl 15 50 0 100 0 0 empty empty empty 0 -9 0 10 #fcfcfc #000000 #000000 0 1;
#X obj 488 177 route value2;
#X obj 662 106 bng 15 250 50 0 empty empty empty 17 7 0 10 #fcfcfc #000000 #000000;
#X obj 662 81 route bang2;
#X msg 192 441 push all pdSlider2 \$1;
#X msg 182 374 push all pdSlider1 \$1;
#X obj 172 827 netsend -u -b;
#X obj 17 762 netreceive -u -b 3001;
#X msg 24 374 push all pdEvent1;
#X msg 17 736 listen 3001;
#X msg 172 749 connect localhost 3002;
#X text 14 646 Please refer to the README.md in the root folder.;
#N canvas 379 29 681 346 speedlim 0;
#X obj 22 27 inlet;
#X obj 20 305 outlet;
#X obj 22 154 spigot 1;
#X obj 75 27 r \$0-del;
#X obj 75 59 t b b;
#X msg 75 123 0;
#X msg 115 123 1;
#X obj 115 92 del \$1;
#X obj 154 28 inlet;
#X obj 74 243 s \$0-del;
#X floatatom 213 466 5 0 0 0 - - - 0;
#X floatatom 223 476 5 0 0 0 - - - 0;
#X floatatom 233 486 5 0 0 0 - - - 0;
#X obj 21 208 t list b;
#X obj 21 181 list;
#X obj 20 271 route list;
#X connect 0 0 2 0;
#X connect 2 0 14 0;
#X connect 3 0 4 0;
#X connect 4 0 5 0;
#X connect 4 1 7 0;
#X connect 5 0 2 1;
#X connect 6 0 2 1;
#X connect 7 0 6 0;
#X connect 8 0 7 1;
#X connect 13 0 15 0;
#X connect 13 1 9 0;
#X connect 14 0 13 0;
#X connect 15 0 1 0;
#X restore 38 508 pd speedlim;
#X obj 296 477 loadbang;
#X floatatom 296 526 8 0 0 0 - - - 0;
#X msg 296 502 30;
#X obj 128 575 print speedlim:;
#X text 769 946 updated for Collab-Hub v0.3.5 - NH;
#X obj 904 48 r fromClient;
#X obj 904 76 print Msg:;
#X text 769 909 Test sending and receiving data to the Webclient: https://server.collab-hub.io;
#X connect 0 0 30 0;
#X connect 1 0 68 0;
#X connect 2 0 3 0;
#X connect 4 0 70 0;
#X connect 5 0 67 0;
#X connect 6 0 7 0;
#X connect 7 0 71 0;
#X connect 7 1 72 0;
#X connect 9 0 8 0;
#X connect 10 0 11 0;
#X connect 11 0 74 0;
#X connect 12 0 11 0;
#X connect 13 0 12 0;
#X connect 14 0 40 0;
#X connect 15 0 14 0;
#X connect 15 0 19 0;
#X connect 18 0 16 0;
#X connect 19 0 40 0;
#X connect 20 0 21 0;
#X connect 20 0 31 0;
#X connect 23 0 22 0;
#X connect 23 0 32 0;
#X connect 25 0 24 0;
#X connect 25 0 33 0;
#X connect 28 0 1 0;
#X connect 29 0 9 0;
#X connect 29 0 2 0;
#X connect 29 0 18 0;
#X connect 29 0 41 0;
#X connect 29 0 43 0;
#X connect 29 0 45 0;
#X connect 29 0 65 0;
#X connect 35 0 23 0;
#X connect 35 0 25 0;
#X connect 35 0 46 0;
#X connect 35 0 20 0;
#X connect 35 0 63 0;
#X connect 36 0 37 0;
#X connect 37 0 74 0;
#X connect 39 0 66 0;
#X connect 40 0 38 0;
#X connect 41 0 17 0;
#X connect 43 0 42 0;
#X connect 45 0 44 0;
#X connect 46 0 26 0;
#X connect 46 0 34 0;
#X connect 47 0 10 0;
#X connect 48 0 39 0;
#X connect 49 0 5 0;
#X connect 55 0 12 0;
#X connect 58 0 10 0;
#X connect 60 0 7 0;
#X connect 63 0 61 0;
#X connect 63 0 62 0;
#X connect 65 0 64 0;
#X connect 66 0 74 0;
#X connect 67 0 74 0;
#X connect 69 0 0 0;
#X connect 70 0 74 0;
#X connect 71 0 69 0;
#X connect 72 0 68 0;
#X connect 74 0 78 0;
#X connect 74 0 27 0;
#X connect 75 0 77 0;
#X connect 76 0 74 1;
#X connect 77 0 76 0;
#X connect 80 0 81 0;
